/* XPM */
static char * Aethyra_xpm[] = {
"32 32 277 2",
"  	c None",
". 	c #840000",
"+ 	c #7E0000",
"@ 	c #4F0000",
"# 	c #810000",
"$ 	c #830000",
"% 	c #7B0000",
"& 	c #460000",
"* 	c #4C0000",
"= 	c #4B0000",
"- 	c #750000",
"; 	c #860000",
"> 	c #850000",
", 	c #5D0000",
"' 	c #490000",
") 	c #450000",
"! 	c #4A0000",
"~ 	c #440000",
"{ 	c #6A0000",
"] 	c #7A0000",
"^ 	c #8B0000",
"/ 	c #990000",
"( 	c #960000",
"_ 	c #720000",
": 	c #6E0000",
"< 	c #740000",
"[ 	c #6B0202",
"} 	c #550505",
"| 	c #420404",
"1 	c #440101",
"2 	c #4D0000",
"3 	c #4E0000",
"4 	c #480000",
"5 	c #9D0000",
"6 	c #9B0000",
"7 	c #6F0000",
"8 	c #710000",
"9 	c #760000",
"0 	c #680404",
"a 	c #4B0C0C",
"b 	c #3C0909",
"c 	c #470202",
"d 	c #450101",
"e 	c #500000",
"f 	c #510000",
"g 	c #790000",
"h 	c #890000",
"i 	c #920000",
"j 	c #710706",
"k 	c #7D381F",
"l 	c #934A1A",
"m 	c #7B1A09",
"n 	c #6B1609",
"o 	c #521E13",
"p 	c #4F2517",
"q 	c #5D230F",
"r 	c #4D0F04",
"s 	c #350A0A",
"t 	c #360909",
"u 	c #470303",
"v 	c #930000",
"w 	c #840202",
"x 	c #712C1C",
"y 	c #A58248",
"z 	c #866621",
"A 	c #835819",
"B 	c #98681F",
"C 	c #845C1D",
"D 	c #BB964A",
"E 	c #856225",
"F 	c #3D1B0B",
"G 	c #241818",
"H 	c #251717",
"I 	c #360A0A",
"J 	c #430000",
"K 	c #6C0000",
"L 	c #800000",
"M 	c #730404",
"N 	c #6A431E",
"O 	c #473C1C",
"P 	c #534420",
"Q 	c #806125",
"R 	c #53290B",
"S 	c #461C09",
"T 	c #BB9432",
"U 	c #65490F",
"V 	c #1F1110",
"W 	c #1A2323",
"X 	c #1A2222",
"Y 	c #261212",
"Z 	c #440202",
"` 	c #7F0000",
" .	c #870000",
"..	c #6D0505",
"+.	c #422522",
"@.	c #454434",
"#.	c #A18744",
"$.	c #8F7237",
"%.	c #A37F48",
"&.	c #AD8847",
"*.	c #C6A657",
"=.	c #644C14",
"-.	c #211615",
";.	c #1C2626",
">.	c #1B2323",
",.	c #231313",
"'.	c #420202",
").	c #6C0404",
"!.	c #532D23",
"~.	c #A8915B",
"{.	c #967C37",
"].	c #6E5926",
"^.	c #453512",
"/.	c #473713",
"(.	c #A4832A",
"_.	c #594310",
":.	c #241F1E",
"<.	c #232828",
"[.	c #1C2020",
"}.	c #241111",
"|.	c #430202",
"1.	c #7C5030",
"2.	c #967C3D",
"3.	c #3E3318",
"4.	c #3D3930",
"5.	c #454442",
"6.	c #524D44",
"7.	c #C09E45",
"8.	c #654F17",
"9.	c #262524",
"0.	c #252929",
"a.	c #410202",
"b.	c #6B0302",
"c.	c #A78041",
"d.	c #6A5621",
"e.	c #414543",
"f.	c #696B6B",
"g.	c #747676",
"h.	c #7B7566",
"i.	c #C9A84F",
"j.	c #665017",
"k.	c #282725",
"l.	c #252A2A",
"m.	c #1B2222",
"n.	c #3D0202",
"o.	c #750802",
"p.	c #B48E41",
"q.	c #564418",
"r.	c #4A4B4B",
"s.	c #6D6F6F",
"t.	c #797A7A",
"u.	c #867C62",
"v.	c #AE9040",
"w.	c #664F12",
"x.	c #2D2A25",
"y.	c #242828",
"z.	c #1E1E1E",
"A.	c #291010",
"B.	c #400202",
"C.	c #860B02",
"D.	c #B78C32",
"E.	c #594013",
"F.	c #433E3E",
"G.	c #606464",
"H.	c #74736C",
"I.	c #7C6D44",
"J.	c #433719",
"K.	c #413311",
"L.	c #322F1E",
"M.	c #1C2121",
"N.	c #271212",
"O.	c #3C0606",
"P.	c #8C0200",
"Q.	c #B5771D",
"R.	c #765513",
"S.	c #3F3636",
"T.	c #555B5B",
"U.	c #686969",
"V.	c #5A5957",
"W.	c #3C3832",
"X.	c #403826",
"Y.	c #2F3023",
"Z.	c #1C1F1D",
"`.	c #2E0A0A",
" +	c #460101",
".+	c #8F0101",
"++	c #A03F0C",
"@+	c #AC7E19",
"#+	c #4B3625",
"$+	c #474747",
"%+	c #5B5C5A",
"&+	c #83775A",
"*+	c #8C7539",
"=+	c #67541F",
"-+	c #6B551C",
";+	c #8C6D24",
">+	c #4E1C09",
",+	c #4A0101",
"'+	c #8A0606",
")+	c #8D1203",
"!+	c #A76713",
"~+	c #87611B",
"{+	c #453A32",
"]+	c #52554E",
"^+	c #A38A45",
"/+	c #715818",
"(+	c #7A6424",
"_+	c #443212",
":+	c #947026",
"<+	c #7D4E11",
"[+	c #490400",
"}+	c #420000",
"|+	c #7F0808",
"1+	c #8B0101",
"2+	c #800F01",
"3+	c #915E11",
"4+	c #504F40",
"5+	c #4E4834",
"6+	c #5A4715",
"7+	c #5B4814",
"8+	c #382813",
"9+	c #917035",
"0+	c #533209",
"a+	c #3F0400",
"b+	c #8E0101",
"c+	c #8A0000",
"d+	c #671104",
"e+	c #663D12",
"f+	c #786023",
"g+	c #74612B",
"h+	c #665320",
"i+	c #675321",
"j+	c #785C24",
"k+	c #684718",
"l+	c #380B00",
"m+	c #400000",
"n+	c #8C0303",
"o+	c #8D0000",
"p+	c #780101",
"q+	c #510808",
"r+	c #291A16",
"s+	c #26291C",
"t+	c #2D2B18",
"u+	c #321F0E",
"v+	c #370A02",
"w+	c #3E0100",
"x+	c #850202",
"y+	c #600202",
"z+	c #331313",
"A+	c #1E2121",
"B+	c #1A1E1E",
"C+	c #270D0D",
"D+	c #470000",
"E+	c #7B0404",
"F+	c #720101",
"G+	c #4B0D0D",
"H+	c #2D1717",
"I+	c #261414",
"J+	c #380808",
"K+	c #7E0202",
"L+	c #5D0606",
"M+	c #3B0E0E",
"N+	c #300C0C",
"O+	c #430303",
"P+	c #7A0505",
"Q+	c #7C0000",
"R+	c #640404",
"S+	c #430D0D",
"T+	c #460202",
"U+	c #610505",
"V+	c #440E0E",
"W+	c #390B0B",
"X+	c #560202",
"Y+	c #480707",
"Z+	c #410505",
"`+	c #4B0101",
" @	c #480101",
"                                                                ",
"                                                                ",
"                                                                ",
"          . +                                     @             ",
"          # $ %                               & * @ =           ",
"          - # ; > $           , '           ) ! @ * ~           ",
"          { ] ^ / ( $ _ : < [ } | 1 ) ~ ' 2 2 3 3 4             ",
"            ] ^ 5 6 . 7 8 9 0 a b c * d 4 e f @ 3 4             ",
"            g h / i j k l m n o p q r s t u e 3 2 4             ",
"            8 > v w x y z A B C D E F G H I = @ ' J             ",
"            K L ^ M N O P Q R S T U V W X Y Z e )               ",
"              `  ...+.@.#.$.%.&.*.=.-.;.>.,.'.e &               ",
"              ` . ).!.~.{.].^./.(._.:.<.[.}.|.@ 4               ",
"                # [ 1.2.3.4.5.6.7.8.9.0.[.}.a.=                 ",
"                ` b.c.d.e.f.g.h.i.j.k.l.m.,.n.)                 ",
"                L o.p.q.r.s.t.u.v.w.x.y.z.A.B.~                 ",
"                ; C.D.E.F.G.H.I.J.K.L.M.N.O.4                   ",
"                  P.Q.R.S.T.U.V.W.X.Y.Z.`. +2                   ",
"                  .+++@+#+$+%+&+*+=+-+;+>+,+=                   ",
"                  '+)+!+~+{+]+^+/+(+_+:+<+[+}+                  ",
"                  |+1+2+3+z 4+5+6+7+8+9+0+a+                    ",
"                    b+c+d+e+f+g+h+i+j+k+l+m+                    ",
"                    n+o+p+q+r+s+t+u+v+w+) )                     ",
"                      x+` y+z+A+B+C+1 e D+                      ",
"                      E+# F+G+H+I+J+3 @ ~                       ",
"                        K+% L+M+N+O+e '                         ",
"                        P+Q+R+S+I T+@ )                         ",
"                          9 U+V+W+u 2                           ",
"                            X+Y+Z+ +                            ",
"                            * `+ @                              ",
"                                                                ",
"                                                                "};
