/* XPM */
static char * aethyra_xpm[] = {
"32 32 275 2",
"  	c None",
". 	c #840000",
"+ 	c #7F0000",
"@ 	c #4F0000",
"# 	c #810000",
"$ 	c #830000",
"% 	c #790000",
"& 	c #460000",
"* 	c #4B0000",
"= 	c #750000",
"- 	c #800000",
"; 	c #880000",
"> 	c #860000",
", 	c #820000",
"' 	c #5C0000",
") 	c #4A0000",
"! 	c #6B0000",
"~ 	c #8C0000",
"{ 	c #990000",
"] 	c #950000",
"^ 	c #700000",
"/ 	c #6D0000",
"( 	c #740000",
"_ 	c #6E0202",
": 	c #540505",
"< 	c #420404",
"[ 	c #450101",
"} 	c #430000",
"| 	c #490000",
"1 	c #4D0000",
"2 	c #4E0000",
"3 	c #470000",
"4 	c #9D0000",
"5 	c #9B0000",
"6 	c #710000",
"7 	c #770000",
"8 	c #690404",
"9 	c #480D0D",
"0 	c #3A0A0A",
"a 	c #480101",
"b 	c #440101",
"c 	c #470101",
"d 	c #510000",
"e 	c #520000",
"f 	c #780000",
"g 	c #8A0000",
"h 	c #9A0000",
"i 	c #930000",
"j 	c #730404",
"k 	c #763119",
"l 	c #8D4518",
"m 	c #710902",
"n 	c #640704",
"o 	c #43100F",
"p 	c #3C130C",
"q 	c #551608",
"r 	c #4F0C03",
"s 	c #350A0A",
"t 	c #360909",
"u 	c #490202",
"v 	c #500000",
"w 	c #940000",
"x 	c #830202",
"y 	c #692418",
"z 	c #B29354",
"A 	c #8C6E25",
"B 	c #8C661F",
"C 	c #A67925",
"D 	c #8D6822",
"E 	c #D2AF5B",
"F 	c #886826",
"G 	c #3E1C0A",
"H 	c #221A1A",
"I 	c #231919",
"J 	c #8D0000",
"K 	c #720404",
"L 	c #71481D",
"M 	c #413719",
"N 	c #47391B",
"O 	c #8B6B29",
"P 	c #4E2207",
"Q 	c #3B1104",
"R 	c #C99F35",
"S 	c #563C0A",
"T 	c #1F0F0E",
"U 	c #192525",
"V 	c #192323",
"W 	c #271111",
"X 	c #430202",
"Y 	c #480000",
"Z 	c #6B0505",
"` 	c #412222",
" .	c #454637",
"..	c #AA8F48",
"+.	c #886B33",
"@.	c #A9864B",
"#.	c #B7944C",
"$.	c #D8B762",
"%.	c #533C0C",
"&.	c #211614",
"*.	c #1C2828",
"=.	c #1A2424",
"-.	c #241111",
";.	c #410202",
">.	c #6B0404",
",.	c #48211E",
"'.	c #B39D63",
").	c #9B7F38",
"!.	c #6F5923",
"~.	c #44330F",
"{.	c #45340F",
"].	c #B38E2D",
"^.	c #49360B",
"/.	c #241E1D",
"(.	c #222928",
"_.	c #1B2222",
":.	c #251010",
"<.	c #6A0202",
"[.	c #794C2D",
"}.	c #997F3E",
"|.	c #3B3115",
"1.	c #393834",
"2.	c #454545",
"3.	c #555049",
"4.	c #D2AD4E",
"5.	c #554210",
"6.	c #272625",
"7.	c #252929",
"8.	c #1C2222",
"9.	c #4C0000",
"0.	c #690302",
"a.	c #B48B4A",
"b.	c #5F4B17",
"c.	c #3E4241",
"d.	c #6C6E6E",
"e.	c #747676",
"f.	c #7A7466",
"g.	c #DAB556",
"h.	c #574310",
"i.	c #282725",
"j.	c #252A2A",
"k.	c #1A2323",
"l.	c #231212",
"m.	c #3D0202",
"n.	c #750802",
"o.	c #C59D4A",
"p.	c #45350E",
"q.	c #484949",
"r.	c #6F7171",
"s.	c #7B7B7B",
"t.	c #867C60",
"u.	c #B49543",
"v.	c #5F480F",
"w.	c #2E2B25",
"x.	c #232727",
"y.	c #1D1E1E",
"z.	c #2B0F0F",
"A.	c #400202",
"B.	c #860B02",
"C.	c #C59838",
"D.	c #49330C",
"E.	c #423C3C",
"F.	c #626666",
"G.	c #747471",
"H.	c #7F6D3E",
"I.	c #423718",
"J.	c #40320F",
"K.	c #322F1D",
"L.	c #1D2121",
"M.	c #261313",
"N.	c #3D0606",
"O.	c #8C0100",
"P.	c #BF7E1F",
"Q.	c #6F4E11",
"R.	c #3E3333",
"S.	c #565D5D",
"T.	c #686A6A",
"U.	c #585857",
"V.	c #3C3934",
"W.	c #413927",
"X.	c #313224",
"Y.	c #1B1D1C",
"Z.	c #2D0A0A",
"`.	c #900101",
" +	c #9E3D0A",
".+	c #AF851C",
"++	c #473023",
"@+	c #484B4B",
"#+	c #5A5C5C",
"$+	c #81765B",
"%+	c #957D3D",
"&+	c #5C4B1C",
"*+	c #67531B",
"=+	c #947426",
"-+	c #471608",
";+	c #890606",
">+	c #890701",
",+	c #A96E13",
"'+	c #906718",
")+	c #403633",
"!+	c #4B514F",
"~+	c #AE9042",
"{+	c #695214",
"]+	c #836B27",
"^+	c #3C2D13",
"/+	c #977125",
"(+	c #855712",
"_+	c #420000",
":+	c #7E0909",
"<+	c #8C0101",
"[+	c #7D0F01",
"}+	c #956612",
"|+	c #8B6B24",
"1+	c #464942",
"2+	c #4E4835",
"3+	c #5D4814",
"4+	c #5B4813",
"5+	c #25180C",
"6+	c #9C793B",
"7+	c #553709",
"8+	c #3E0000",
"9+	c #8E0101",
"0+	c #640803",
"a+	c #5F3C11",
"b+	c #836820",
"c+	c #74612A",
"d+	c #645222",
"e+	c #665321",
"f+	c #846729",
"g+	c #644314",
"h+	c #350900",
"i+	c #8D0303",
"j+	c #7A0101",
"k+	c #4E0909",
"l+	c #281815",
"m+	c #26291C",
"n+	c #2C2B18",
"o+	c #321F0D",
"p+	c #350A02",
"q+	c #3E0100",
"r+	c #450000",
"s+	c #840202",
"t+	c #5F0202",
"u+	c #351212",
"v+	c #1D2323",
"w+	c #191F1F",
"x+	c #290C0C",
"y+	c #7C0303",
"z+	c #710101",
"A+	c #4C0D0D",
"B+	c #2A1919",
"C+	c #241616",
"D+	c #390707",
"E+	c #440000",
"F+	c #7E0202",
"G+	c #7B0000",
"H+	c #600505",
"I+	c #390E0E",
"J+	c #2F0B0B",
"K+	c #460202",
"L+	c #7C0404",
"M+	c #7C0000",
"N+	c #670303",
"O+	c #400D0D",
"P+	c #340B0B",
"Q+	c #760000",
"R+	c #640404",
"S+	c #420E0E",
"T+	c #380C0C",
"U+	c #480202",
"V+	c #580202",
"W+	c #460707",
"X+	c #400606",
"Y+	c #4C0101",
"Z+	c #490101",
"                                                                ",
"                                                                ",
"                                                                ",
"          . +                                     @             ",
"          # $ %                               & * @             ",
"          = - ; > ,           ' )           & * @ *             ",
"          ! % ~ { ] . ^ / ( _ : < [ & } | 1 1 2 @ 3             ",
"            % ~ 4 5 > / 6 7 8 9 0 a 1 b c d e @ @ |             ",
"            f g h i j k l m n o p q r s t u v 2 2               ",
"            ^ > w x y z A B C D E F G H I t ) @ )               ",
"              # J K L M N O P Q R S T U V W X d Y               ",
"              - ; Z `  ...+.@.#.$.%.&.*.=.-.;.d                 ",
"              , > >.,.'.).!.~.{.].^./.(._.:.X v                 ",
"                $ <.[.}.|.1.2.3.4.5.6.7.8.:.;.9.                ",
"                - 0.a.b.c.d.e.f.g.h.i.j.k.l.m.                  ",
"                , n.o.p.q.r.s.t.u.v.w.x.y.z.A.                  ",
"                  B.C.D.E.F.G.H.I.J.K.L.M.N.Y                   ",
"                  O.P.Q.R.S.T.U.V.W.X.Y.Z.| 2                   ",
"                  `. +.+++@+#+$+%+&+*+=+-+9.*                   ",
"                  ;+>+,+'+)+!+~+{+]+^+/+(+3 _+                  ",
"                  :+<+[+}+|+1+2+3+4+5+6+7+8+                    ",
"                    9+g 0+a+b+c+d+e+f+g+h+_+                    ",
"                    i+J j+k+l+m+n+o+p+q+r+r+                    ",
"                      s+# t+u+v+w+x+& e 3                       ",
"                      y+$ z+A+B+C+D+2 @ E+                      ",
"                        F+G+H+I+J+K+d Y                         ",
"                        L+M+N+O+P+a v }                         ",
"                          Q+R+S+T+U+1                           ",
"                            V+W+X+c                             ",
"                              Y+Z+                              ",
"                                                                ",
"                                                                "};
