<?xml version="1.0" encoding="UTF-8" standalone="no"?>
<!-- Created with Inkscape (http://www.inkscape.org/) -->

<svg
   version="1.0"
   width="128"
   height="128"
   id="svg2"
   sodipodi:version="0.32"
   inkscape:version="1.3.2 (091e20ef0f, 2023-11-25)"
   sodipodi:docname="mana.svg"
   inkscape:output_extension="org.inkscape.output.svg.inkscape"
   inkscape:export-filename="mana.png"
   inkscape:export-xdpi="96"
   inkscape:export-ydpi="96"
   xmlns:inkscape="http://www.inkscape.org/namespaces/inkscape"
   xmlns:sodipodi="http://sodipodi.sourceforge.net/DTD/sodipodi-0.dtd"
   xmlns:xlink="http://www.w3.org/1999/xlink"
   xmlns="http://www.w3.org/2000/svg"
   xmlns:svg="http://www.w3.org/2000/svg"
   xmlns:rdf="http://www.w3.org/1999/02/22-rdf-syntax-ns#"
   xmlns:cc="http://creativecommons.org/ns#"
   xmlns:dc="http://purl.org/dc/elements/1.1/">
  <metadata
     id="metadata9">
    <rdf:RDF>
      <cc:Work
         rdf:about="">
        <dc:format>image/svg+xml</dc:format>
        <dc:type
           rdf:resource="http://purl.org/dc/dcmitype/StillImage" />
      </cc:Work>
    </rdf:RDF>
  </metadata>
  <sodipodi:namedview
     inkscape:window-height="1043"
     inkscape:window-width="1819"
     inkscape:pageshadow="2"
     inkscape:pageopacity="0.0"
     guidetolerance="10.0"
     gridtolerance="10.0"
     objecttolerance="10.0"
     borderopacity="1.0"
     bordercolor="#666666"
     pagecolor="#ffffff"
     id="base"
     showgrid="false"
     inkscape:zoom="2.8284271"
     inkscape:cx="104.6518"
     inkscape:cy="73.539106"
     inkscape:window-x="393"
     inkscape:window-y="199"
     inkscape:current-layer="svg2"
     inkscape:showpageshadow="0"
     inkscape:pagecheckerboard="0"
     inkscape:deskcolor="#d1d1d1"
     inkscape:window-maximized="0" />
  <defs
     id="defs4">
    <linearGradient
       id="linearGradient3496">
      <stop
         style="stop-color:#ffffff;stop-opacity:1;"
         offset="0"
         id="stop3498" />
      <stop
         style="stop-color:#1d2dfa;stop-opacity:0;"
         offset="1"
         id="stop3500" />
    </linearGradient>
    <inkscape:perspective
       sodipodi:type="inkscape:persp3d"
       inkscape:vp_x="0 : 89.34684 : 1"
       inkscape:vp_y="0 : 1000 : 0"
       inkscape:vp_z="300 : 89.34684 : 1"
       inkscape:persp3d-origin="150 : 72.680173 : 1"
       id="perspective11" />
    <clipPath
       clipPathUnits="userSpaceOnUse"
       id="clipPath2386">
      <rect
         style="opacity:0.8;fill:#000000;fill-opacity:1;fill-rule:evenodd;stroke:#000000;stroke-width:0.5;stroke-miterlimit:4;stroke-dasharray:none;stroke-dashoffset:0;stroke-opacity:1"
         id="rect2388"
         width="62.61343"
         height="26.678766"
         x="124.41016"
         y="66.515427" />
    </clipPath>
    <clipPath
       clipPathUnits="userSpaceOnUse"
       id="clipPath3388">
      <rect
         style="opacity:0.8;fill:#ffffff;fill-opacity:1;fill-rule:evenodd;stroke:#000000;stroke-width:0.5;stroke-miterlimit:4;stroke-dasharray:none;stroke-dashoffset:0;stroke-opacity:1"
         id="rect3390"
         width="162.63455"
         height="49.497475"
         x="564.81299"
         y="219.43652"
         ry="7"
         rx="7" />
    </clipPath>
    <clipPath
       clipPathUnits="userSpaceOnUse"
       id="clipPath3492">
      <rect
         y="405"
         x="51.928932"
         height="78"
         width="671"
         id="rect3494"
         style="opacity:1;fill:#fa1d24;fill-opacity:1;fill-rule:evenodd;stroke:#919191;stroke-width:1;stroke-miterlimit:4;stroke-dasharray:none;stroke-dashoffset:0;stroke-opacity:1" />
    </clipPath>
    <radialGradient
       inkscape:collect="always"
       xlink:href="#linearGradient3496"
       id="radialGradient3502"
       cx="348.73093"
       cy="462.78244"
       fx="348.73093"
       fy="462.78244"
       r="30.905592"
       gradientTransform="matrix(2.4798313,-0.1095192,0.07370967,1.6690008,-546.41268,-274.89586)"
       gradientUnits="userSpaceOnUse" />
  </defs>
  <path
     d="m 57.880946,40.396831 c 2.197698,5.1e-5 4.347643,0.238933 6.44985,0.71665 2.149913,0.477814 3.989311,1.385571 5.518204,2.72327 h 0.07167 c 0.382171,0.334482 0.764384,0.5017 1.146639,0.501655 0.477725,4.5e-5 1.027155,-0.191062 1.648295,-0.57332 0.621053,-0.429945 1.457143,-0.883821 2.508276,-1.361634 1.051037,-0.525496 2.388782,-0.979375 4.013238,-1.361635 1.672132,-0.429941 3.798191,-0.644935 6.378184,-0.644986 3.057647,5.1e-5 5.661473,0.382263 7.811491,1.146641 2.149876,0.764473 3.869831,1.839447 5.159879,3.224923 1.337673,1.385568 2.293208,3.105525 2.866588,5.159881 0.62102,2.006656 0.93157,4.252158 0.93165,6.736508 -8e-5,1.86332 -0.14341,3.869938 -0.42999,6.01986 L 99.088319,83.32416 c -0.04785,0.38222 -0.238948,0.836098 -0.573318,1.361636 -0.334513,0.47777 -0.716729,0.955536 -1.146637,1.433299 -0.430063,0.47777 -0.883946,0.88387 -1.361636,1.218305 -0.430063,0.334438 -0.788382,0.501657 -1.074983,0.501656 H 84.611989 c -0.191163,10e-7 -0.286716,-0.09555 -0.286659,-0.286661 V 87.3374 c 0.143273,-1.09886 0.33438,-2.436605 0.573318,-4.01324 0.238828,-1.624398 0.477711,-3.344356 0.71665,-5.159878 0.238827,-1.863277 0.501597,-3.750453 0.788315,-5.661536 0.286602,-1.958823 0.525486,-3.822111 0.716651,-5.589868 0.191047,-1.815488 0.358265,-3.48767 0.501655,-5.016551 0.14327,-1.528822 0.214935,-2.794903 0.214994,-3.798243 -5.9e-5,-2.102139 -0.215053,-3.822097 -0.644986,-5.15988 -0.382271,-1.385485 -0.883925,-2.460459 -1.504962,-3.224925 -0.621154,-0.812161 -1.313916,-1.361591 -2.078286,-1.648293 -0.716705,-0.334396 -1.409465,-0.501613 -2.078285,-0.501656 -0.907809,4.3e-5 -1.696122,0.16726 -2.364945,0.501656 -0.668924,0.286702 -1.075023,0.573359 -1.218305,0.859978 -0.477813,0.860021 -0.907804,1.839441 -1.28997,2.938266 -0.382261,1.098899 -0.740585,2.269426 -1.074974,3.511583 -0.286706,1.242227 -0.549478,2.484418 -0.788315,3.72658 -0.238929,1.242223 -0.430035,2.436639 -0.57332,3.583251 L 71.353966,83.32416 c -0.04782,0.38222 -0.238926,0.836098 -0.57332,1.361636 -0.334479,0.47777 -0.716693,0.955536 -1.14664,1.433299 -0.430031,0.47777 -0.883908,0.88387 -1.361635,1.218305 -0.43003,0.334438 -0.788354,0.501657 -1.074974,0.501656 h -10.31976 c -0.191135,10e-7 -0.286687,-0.119436 -0.286659,-0.358325 V 87.3374 c 0.143302,-1.09886 0.334408,-2.436605 0.573319,-4.01324 0.238855,-1.624398 0.477738,-3.344356 0.716649,-5.159878 0.286632,-1.863277 0.549402,-3.750453 0.788316,-5.661536 0.286631,-1.958823 0.525513,-3.822111 0.71665,-5.589868 0.238852,-1.815488 0.406071,-3.48767 0.501654,-5.016551 0.1433,-1.528822 0.214965,-2.794903 0.214995,-3.798243 -3e-5,-2.102139 -0.215024,-3.822097 -0.644983,-5.15988 -0.382245,-1.385485 -0.883898,-2.460459 -1.504966,-3.224925 -0.621125,-0.812161 -1.313886,-1.361591 -2.078284,-1.648293 -0.716677,-0.334396 -1.409438,-0.501613 -2.078285,-0.501656 -0.860005,4.3e-5 -1.62443,0.16726 -2.293281,0.501656 -0.668894,0.286702 -1.098883,0.573359 -1.289968,0.859978 -0.477788,0.860021 -0.931665,1.839441 -1.361636,2.938266 -0.382234,1.098899 -0.740558,2.269426 -1.074976,3.511583 -0.286677,1.242227 -0.549449,2.484418 -0.788313,3.72658 -0.191124,1.242223 -0.358343,2.436639 -0.501655,3.583251 L 43.69128,83.32416 c -0.0478,0.38222 -0.262787,0.836098 -0.644986,1.361636 -0.33445,0.47777 -0.716663,0.955536 -1.146641,1.433299 -0.430002,0.47777 -0.88388,0.88387 -1.361634,1.218305 -0.430002,0.334438 -0.788326,0.501657 -1.074975,0.501656 H 29.214951 c -0.238884,10e-7 -0.358324,-0.167218 -0.358326,-0.501656 L 34.51816,46.058366 c 0.04777,-0.38217 0.238878,-0.836047 0.57332,-1.361634 0.334431,-0.525499 0.716643,-1.003265 1.146641,-1.4333 0.429981,-0.477721 0.859971,-0.883822 1.289969,-1.218306 0.477757,-0.334389 0.85997,-0.501606 1.146639,-0.501654 h 1.433301 4.658224 c 0.90774,4.8e-5 1.6005,0.07171 2.078284,0.214994 0.477748,0.0956 0.907739,0.143378 1.28997,0.143331 0.286641,4.7e-5 0.525525,-0.04773 0.71665,-0.143331 2.771024,-0.907708 5.757063,-1.361584 8.958124,-1.361635 h 0.07167"
     id="text2395"
     style="font-style:normal;font-variant:normal;font-weight:normal;font-stretch:normal;font-size:66.3327px;line-height:125%;font-family:Beroga;-inkscape-font-specification:Beroga;text-align:start;writing-mode:lr-tb;text-anchor:start;fill:#ff6600;fill-opacity:1;stroke:none;stroke-width:1.30019px;stroke-linecap:butt;stroke-linejoin:miter;stroke-opacity:1"
     sodipodi:nodetypes="ccccscccssccsccsssccccsssssscccscsscsccsssccccsccccscccscccccccsssccccscsccccsccc" />
  <path
     style="display:inline;overflow:visible;visibility:visible;fill:#ff6600;fill-opacity:1;fill-rule:evenodd;stroke:none;stroke-width:10.4015;stroke-linecap:butt;stroke-linejoin:miter;stroke-miterlimit:4;stroke-dasharray:none;stroke-dashoffset:0;stroke-opacity:1;marker:none;marker-start:none;marker-mid:none;marker-end:none;enable-background:accumulate"
     d="M 65.474806,6.3911817 C 64.540129,6.420856 63.613358,6.4688537 62.711905,6.5537054 31.613188,9.4809691 -3.6873291,50.385012 12.73589,87.0029 31.488569,128.81465 83.462108,130.2936 110.53448,104.63671 134.38062,82.037369 104.40406,66.542488 89.40641,98.338923 76.35979,125.99896 21.757597,122.74807 18.708633,78.185993 14.832307,21.531649 72.223463,-5.1799855 106.79644,22.359128 96.876568,11.678285 79.494959,5.9460647 65.474806,6.3911817 Z M 110.20943,84.239998 c 1.98715,-0.127457 3.63792,0.480995 4.5913,1.869022 2.17914,3.172634 -0.14816,9.273559 -5.20076,13.611354 -5.05261,4.337806 -10.903996,5.285446 -13.083151,2.112806 -2.179143,-3.172629 0.148143,-9.273553 5.200751,-13.611353 2.84209,-2.440012 5.93697,-3.817953 8.49186,-3.981829 z"
     id="path2406" />
  <text
     xml:space="preserve"
     style="font-style:normal;font-weight:normal;line-height:0%;font-family:'URW Chancery L';text-align:start;text-anchor:start;fill:#000000;fill-opacity:1;stroke:none;stroke-width:1px;stroke-linecap:butt;stroke-linejoin:miter;stroke-opacity:1"
     x="306.18881"
     y="79.207848"
     id="text3160"><tspan
       sodipodi:role="line"
       id="tspan3162"
       x="306.18881"
       y="79.207848"
       style="font-size:18px;line-height:1.25"> </tspan></text>
</svg>
