/* XPM */
static char *dummy[]={
"32 32 21 1",
". c None",
"f c #003300",
"s c #003333",
"# c #003366",
"d c #006600",
"h c #009933",
"c c #040404",
"m c #0c0c0c",
"a c #3366cc",
"e c #339933",
"g c #33cc33",
"o c #66cc99",
"r c #993300",
"n c #996633",
"b c #99ccff",
"j c #c0c0c0",
"k c #cc6666",
"q c #cc9933",
"i c #cc9999",
"p c #cccc66",
"l c #efd6c6",
"................................",
".........................#......",
"........#................a......",
".......#a..............#aba#....",
"...#.......cccccccc......a......",
"...a......ccdeddcfdcc....#......",
".#ab#....ccccegdheefc...........",
"...#...cccdheeeeehdddc..........",
".......cheheegeeehddfcc.cc......",
"........ccdhedeeehhdcc..cic.....",
".......ccdhgeeeheeddfc.cijc.....",
".......cfddhehhhddfccc.cikcc....",
".......ccccfdhedfdffc..cjliccm..",
"..........cccdfdfcccc.cciiknc...",
".....cccc...cccccc...cceciiicc..",
"....cgoggccccnpqrc..mcgogeckcec.",
"....ccggogggccqpqccmccecciidogcm",
"....cjncgggecpncnrcccnijijikdec.",
".....ciikceccrqqcncrciiliikcnc..",
"....ccccccrcpqpqnrnkdkiiiiiinc..",
"..cccgogeccnqpccpqncdcseinikrc..",
"..cgooogggecnqcnqcpneedddsknegc.",
"..ccccggoooggcnegeceeegdedseogg.",
"...ccrkggggggoogggoeggegeeddcec.",
".....ccrcceggggeggggeggegeeckcc.",
".....mcnilkcgepccceggecceeecic..",
"......mcriikccinkcpeeencceciic..",
"........cijiilikiikccciknccrkc..",
".......cckiknccckiijiiknrc.cc...",
"........cccncc.ccnkknrccc...c...",
"..........ccc....ccccc..........",
"...........m...................."};
